<svg width="1209" height="238" viewBox="0 0 1209 238" fill="none" xmlns="http://www.w3.org/2000/svg">
<g clip-path="url(#clip0_1_19)">
<path d="M552 92L606 146" stroke="#597C8B" stroke-width="5.97"/>
<path d="M606 92L552 146" stroke="#597C8B" stroke-width="5.97"/>
<path d="M158 131.4H141.2L155.7 102.1H155.9L158 131.4ZM158.8 144.6L159.8 156.2H178.2L172.1 88.5H144.7L110 156.2H128.8L134.6 144.6H158.8Z" fill="#F38B00"/>
<path d="M204 126.6H206.7L219.9 108.8H236.9L218.7 131.6L229.9 156.2H211.8L204.5 137H201.8L197.7 156.2H182.2L196.5 88.5H212.1L204 126.6Z" fill="#F38B00"/>
<path d="M256.8 136.6C261.9 136.6 265.2 137 264.4 140.9C263.3 145.9 261.2 146.7 254.7 146.7C252.3 146.7 247.9 146.7 249 141.6C249.9 137.3 253 136.6 256.8 136.6ZM261.1 156.2H276.6L282.9 126.6C286.4 110.3 280.1 108.3 264.2 108.3C253.1 108.3 242.4 108.2 239.2 122.9H254.7C255.6 118.6 258.2 117.8 262.1 117.8C268.9 117.8 268.6 120.6 267.6 125L266 132.5H265.3C264.7 127.1 257.9 127.2 253.5 127.2C242.3 127.2 235.6 130.7 233.2 142.1C230.6 154.2 236.4 156.8 247.2 156.8C252.6 156.8 259.9 155.7 262.4 149.2H262.9L261.1 156.2Z" fill="#F38B00"/>
<path d="M308 108.8L306.6 115.5H307.2C310.3 109.9 316.4 108.3 321.7 108.3C328.4 108.3 335 109.5 334.1 117.6H334.8C337.1 110.8 344 108.3 350 108.3C360.9 108.3 365.6 112.8 363.2 123.8L356.3 156.2H340.8L346.6 128.8C347.4 123.8 348.2 120.2 342.2 120.2C336.2 120.2 334.1 124.2 333.1 129.3L327.4 156.2H311.9L318 127.5C318.7 123.2 319.1 120.2 313.7 120.2C307.3 120.2 305.4 123.6 304.2 129.3L298.5 156.2H283L293.1 108.8H308Z" fill="#F38B00"/>
<path d="M387.6 136.6C392.6 136.6 396 137 395.2 140.9C394.2 145.9 392 146.7 385.5 146.7C383.2 146.7 378.7 146.7 379.8 141.6C380.7 137.3 383.8 136.6 387.6 136.6ZM391.9 156.2H407.4L413.7 126.6C417.2 110.3 410.9 108.3 395 108.3C383.9 108.3 373.1 108.2 370 122.9H385.5C386.4 118.6 389 117.8 392.9 117.8C399.7 117.8 399.4 120.6 398.4 125L397 132.5H396.3C395.7 127.1 388.9 127.2 384.5 127.2C373.3 127.2 366.6 130.7 364.2 142.1C361.6 154.2 367.4 156.8 378.2 156.8C383.6 156.8 390.9 155.7 393.5 149.2H394L391.9 156.2Z" fill="#F38B00"/>
<path d="M429.8 156.2H414.3L424.3 108.8H439.8L429.8 156.2Z" fill="#F38B00"/>
<path d="M117.9 172.6C83.5 162.1 58.4 130.3 58.4 92.7C58.4 54.6 84 22.5 119 12.4C122.6 11.4 121.6 9 117.3 9C70.8 9 33 46.5 33 92.7C33 138.9 70.7 176.3 117.3 176.3C121.6 176.3 121.8 173.8 117.9 172.6Z" fill="#009BDE"/>
<path d="M74.4 112.2C74.2 110 74 107.7 74 105.4C74 68.7 103.7 39 140.4 39C175.1 39 185.5 54.5 186.8 53.5C188.2 52.4 174.2 21.7 133.5 21.7C96.8 21.7 67.1 51.4 67.1 88.1C67.1 96.6 68.7 104.7 71.6 112.1C72.8 115.3 74.7 115.3 74.4 112.2Z" fill="#009BDE"/>
<path d="M102.2 64.4C119.4 56.9 141.1 56.7 162.4 64.1C176.7 69.1 185 76.2 185.7 75.9C186.8 75.4 177.4 60.4 160.3 54C139.6 46.2 117.4 50.3 101.2 63C99.4 64.4 100.1 65.3 102.2 64.4Z" fill="#009BDE"/>
<path d="M443.3 95.7C443.3 100.5 439.4 104.4 434.6 104.4C429.8 104.4 425.9 100.5 425.9 95.7C425.9 90.9 429.8 87 434.6 87C439.4 87 443.3 90.9 443.3 95.7Z" fill="#F38B00"/>
<path d="M779.9 104.585H740.49V114.697H767.757V124.206H740.49V143H731V95.0753H732.077H740.49L779.9 95.0753V104.585Z" fill="#0E092D"/>
<path d="M839.01 104.585H799.599V114.697H826.866V124.206H799.599V133.465H839.01V143H799.599H791.186H790.109V95.0753H799.599H839.01V104.585Z" fill="#0E092D"/>
<path d="M898.069 143H883.371L866.645 128.848H858.708V143H849.218V95.0753L881.268 95.0753C884.289 95.0753 887.035 95.8364 889.506 97.3586C891.993 98.8808 893.971 100.922 895.44 103.481C896.925 106.04 897.668 108.867 897.668 111.962C897.668 115.056 896.934 117.883 895.465 120.443C893.996 122.985 892.035 125.009 889.581 126.515C887.127 128.02 884.381 128.798 881.343 128.848L898.069 143ZM858.708 104.56V119.389H881.268C883.171 119.389 884.798 118.661 886.15 117.206C887.503 115.751 888.179 114.003 888.179 111.962C888.179 109.921 887.503 108.181 886.15 106.743C884.798 105.288 883.171 104.56 881.268 104.56H858.708Z" fill="#0E092D"/>
<path d="M952.371 95H957.128V142.925H947.638V112.915L935.77 133.691H929.636L917.767 112.915V142.925H908.278V95H913.035H918.493L932.69 119.891L946.912 95L952.371 95Z" fill="#0E092D"/>
<path d="M1016.01 95.0753L996.682 120.919V143H987.192V120.769L967.337 95.0753H979.355L991.95 111.36L1004.14 95.0753H1016.01Z" fill="#0E092D"/>
<path d="M1043.9 143C1047.24 143 1050.37 142.381 1053.29 141.143C1056.23 139.889 1058.8 138.166 1061 135.974C1063.22 133.783 1064.96 131.24 1066.21 128.347C1067.48 125.436 1068.11 122.333 1068.11 119.038C1068.11 115.726 1067.48 112.623 1066.21 109.729C1064.96 106.835 1063.22 104.292 1061 102.101C1058.8 99.9096 1056.23 98.195 1053.29 96.9571C1050.37 95.7026 1047.24 95.0753 1043.9 95.0753C1040.56 95.0753 1037.42 95.7026 1034.48 96.9571C1031.56 98.195 1028.99 99.9096 1026.77 102.101C1024.57 104.292 1022.83 106.835 1021.56 109.729C1020.31 112.623 1019.69 115.726 1019.69 119.038C1019.69 122.333 1020.31 125.436 1021.56 128.347C1022.83 131.24 1024.57 133.783 1026.77 135.974C1028.99 138.166 1031.56 139.889 1034.48 141.143C1037.42 142.381 1040.56 143 1043.9 143ZM1043.9 104.635C1046.57 104.635 1049.01 105.288 1051.21 106.592C1053.41 107.88 1055.17 109.62 1056.47 111.811C1057.79 113.986 1058.45 116.395 1058.45 119.038C1058.45 121.681 1057.79 124.098 1056.47 126.289C1055.17 128.464 1053.41 130.203 1051.21 131.508C1049.01 132.796 1046.57 133.44 1043.9 133.44C1041.23 133.44 1038.79 132.796 1036.59 131.508C1034.38 130.203 1032.62 128.464 1031.3 126.289C1030 124.098 1029.35 121.681 1029.35 119.038C1029.35 116.395 1030 113.986 1031.3 111.811C1032.62 109.62 1034.38 107.88 1036.59 106.592C1038.79 105.288 1041.23 104.635 1043.9 104.635Z" fill="#0E092D"/>
<path d="M1117.65 95.0753H1127.14V143H1122.39H1116.25L1087.78 108.349V143H1078.29V95.0753H1089.19L1117.65 129.727V95.0753Z" fill="#0E092D"/>
</g>
<defs>
<clipPath id="clip0_1_19">
<rect width="1209" height="238" fill="white"/>
</clipPath>
</defs>
</svg>
